<svg width="41" height="41" viewBox="0 0 41 41" fill="none" xmlns="http://www.w3.org/2000/svg">
<path d="M31.7817 35.4399C32.0047 32.7622 32.051 24.2273 24.2283 20.4396C27.4818 18.8621 29.7318 16.2794 30.9269 12.7446C31.0374 12.4174 30.8619 12.0628 30.535 11.9524C30.2064 11.8416 29.8536 12.0174 29.7428 12.3442C28.5123 15.9837 26.0471 18.5103 22.4152 19.8537C22.1702 19.9446 22.0072 20.1784 22.0072 20.4399C22.0072 20.7014 22.1702 20.9352 22.4152 21.0262C30.9219 24.1735 30.7508 32.9822 30.527 35.4399H28.642C27.9256 28.2735 22.9334 26.1837 21.2983 25.6901V21.8013C21.2983 21.4561 21.0184 21.1763 20.6733 21.1763C20.3281 21.1763 20.0483 21.4561 20.0483 21.8013V25.6901C18.4132 26.1837 13.421 28.2735 12.7046 35.4399H10.8207C10.7429 34.5749 10.6648 32.8017 11.0441 30.7192C11.106 30.3795 10.8808 30.0542 10.5411 29.9922C10.2006 29.9324 9.87586 30.1558 9.81421 30.4951C9.4269 32.6216 9.48611 34.4656 9.56538 35.4399C8.50837 35.4034 7.62028 36.2556 7.62244 37.3149C7.62244 38.3489 8.4635 39.1899 9.49744 39.1899H31.8491C32.8831 39.1899 33.7241 38.3489 33.7241 37.3149C33.7241 35.4399 31.7817 35.4399 31.7817 35.4399ZM20.673 26.8105C21.5201 27.0012 26.6373 28.4395 27.3896 35.4399H13.957C14.7095 28.4361 19.8313 27 20.673 26.8105ZM31.8491 37.9399H9.49744C9.1529 37.9399 8.87244 37.6595 8.87244 37.3149C8.87244 36.9704 9.1529 36.6899 9.49744 36.6899H31.8491C32.1937 36.6899 32.4741 36.9704 32.4741 37.3149C32.4741 37.6595 32.1937 37.9399 31.8491 37.9399Z" fill="white"/>
<path d="M9.5674 5.43994C9.38715 7.79865 9.27489 16.6138 17.1207 20.439C13.819 22.0388 11.5519 24.6712 10.3709 28.282C10.2637 28.6104 10.4426 28.9632 10.7706 29.0706C11.0901 29.1777 11.4524 29.0018 11.5592 28.6708C12.7729 24.959 15.2531 22.387 18.9313 21.0262C19.1764 20.9352 19.3394 20.7015 19.3394 20.4399C19.3394 20.1784 19.1764 19.9446 18.9313 19.8537C10.4251 16.7068 10.5936 7.91034 10.8197 5.43994H30.5264C30.6 6.28192 30.6805 8.0878 30.3019 10.1641C30.2399 10.5034 30.4652 10.829 30.8048 10.891C31.1365 10.9534 31.4715 10.7298 31.5317 10.3881C31.9201 8.25832 31.8624 6.4236 31.7815 5.43994C32.8384 5.47629 33.7263 4.62411 33.7241 3.56494C33.7241 2.531 32.8831 1.68994 31.8491 1.68994H9.49744C8.4635 1.68994 7.62244 2.531 7.62244 3.56494C7.62244 5.5111 9.5674 5.43994 9.5674 5.43994ZM9.49744 2.93994H31.8491C32.1937 2.93994 32.4741 3.2204 32.4741 3.56494C32.4741 3.90949 32.1937 4.18994 31.8491 4.18994H9.49744C9.15289 4.18994 8.87244 3.90949 8.87244 3.56494C8.87244 3.2204 9.15289 2.93994 9.49744 2.93994Z" fill="white"/>
<path d="M26.4077 10.4861C26.4642 9.9688 26.5948 9.42742 26.7962 8.87688L27.2741 7.56829C27.3425 7.38121 27.3175 7.17278 27.207 7.00707C27.0965 6.84136 26.9137 6.73821 26.7148 6.72936C23.2315 6.5722 20.6497 7.49344 19.0015 9.43699C17.8317 9.05125 16.4001 8.83988 14.6316 8.91655C14.4326 8.9254 14.2498 9.02855 14.1394 9.19426C14.0289 9.35998 14.0039 9.56841 14.0722 9.75548L14.5504 11.0644C14.7519 11.6146 14.8825 12.1557 14.9386 12.673C15.054 13.7298 15.4898 15.6796 17.1118 16.8646C17.9937 17.5088 19.0905 17.832 20.3875 17.832C20.9881 17.832 21.6317 17.7624 22.3166 17.6235C23.5693 17.3761 24.3098 16.0705 23.939 14.8652C25.7847 13.7259 26.2794 11.6604 26.4077 10.4861ZM17.8491 15.855C16.6147 14.9532 16.2744 13.3892 16.1813 12.5378C16.1142 11.9201 15.9604 11.2798 15.7245 10.635L15.5478 10.1513C20.9094 10.2224 22.3695 13.35 22.7573 15.3128C21.1615 13.0806 18.7432 11.7953 18.6273 11.7345C18.3227 11.5749 17.9446 11.6924 17.7841 11.9979C17.6239 12.3031 17.7417 12.6809 18.0468 12.8414C18.074 12.8557 20.5979 14.2026 21.9905 16.4117C20.2232 16.7569 18.829 16.5706 17.8491 15.855ZM23.5465 13.6177C23.0402 12.366 22.0668 10.9087 20.2122 9.94675C21.4726 8.66074 23.3438 7.99359 25.7989 7.9638C25.5021 8.72791 25.2378 9.58463 25.1651 10.3503C25.0695 11.2264 24.728 12.7172 23.5465 13.6177Z" fill="white"/>
</svg>
