<svg width="41" height="41" viewBox="0 0 41 41" fill="none" xmlns="http://www.w3.org/2000/svg">
<path d="M31.7818 35.4399C32.0048 32.7622 32.0511 24.2273 24.2284 20.4396C27.4819 18.8621 29.7319 16.2794 30.927 12.7446C31.0375 12.4174 30.862 12.0628 30.5352 11.9524C30.2065 11.8416 29.8537 12.0174 29.7429 12.3442C28.5125 15.9837 26.0472 18.5103 22.4153 19.8537C22.1703 19.9446 22.0073 20.1784 22.0073 20.4399C22.0073 20.7014 22.1703 20.9352 22.4153 21.0262C30.922 24.1735 30.7509 32.9822 30.5271 35.4399H28.6421C27.9257 28.2735 22.9335 26.1837 21.2984 25.6901V21.8013C21.2984 21.4561 21.0186 21.1763 20.6734 21.1763C20.3282 21.1763 20.0484 21.4561 20.0484 21.8013V25.6901C18.4133 26.1837 13.4211 28.2735 12.7047 35.4399H10.8208C10.743 34.5749 10.6649 32.8017 11.0442 30.7192C11.1061 30.3795 10.8809 30.0542 10.5413 29.9922C10.2007 29.9324 9.87598 30.1558 9.81433 30.4951C9.42702 32.6216 9.48623 34.4656 9.5655 35.4399C8.50849 35.4034 7.62041 36.2556 7.62256 37.3149C7.62256 38.3489 8.46362 39.1899 9.49756 39.1899H31.8493C32.8832 39.1899 33.7243 38.3489 33.7243 37.3149C33.7243 35.4399 31.7818 35.4399 31.7818 35.4399ZM20.6731 26.8105C21.5203 27.0012 26.6375 28.4395 27.3897 35.4399H13.9571C14.7097 28.4361 19.8314 27 20.6731 26.8105ZM31.8493 37.9399H9.49756C9.15302 37.9399 8.87256 37.6595 8.87256 37.3149C8.87256 36.9704 9.15302 36.6899 9.49756 36.6899H31.8493C32.1938 36.6899 32.4743 36.9704 32.4743 37.3149C32.4743 37.6595 32.1938 37.9399 31.8493 37.9399Z" fill="white"/>
<path d="M9.56752 5.43994C9.38728 7.79865 9.27501 16.6138 17.1209 20.439C13.8192 22.0388 11.552 24.6712 10.371 28.282C10.2639 28.6104 10.4427 28.9632 10.7708 29.0706C11.0902 29.1777 11.4525 29.0018 11.5593 28.6708C12.773 24.959 15.2532 22.387 18.9315 21.0262C19.1765 20.9352 19.3395 20.7015 19.3395 20.4399C19.3395 20.1784 19.1765 19.9446 18.9315 19.8537C10.4252 16.7068 10.5938 7.91034 10.8198 5.43994H30.5265C30.6001 6.28192 30.6806 8.0878 30.302 10.1641C30.2401 10.5034 30.4653 10.829 30.8049 10.891C31.1366 10.9534 31.4716 10.7298 31.5319 10.3881C31.9202 8.25832 31.8625 6.4236 31.7816 5.43994C32.8385 5.47629 33.7264 4.62411 33.7243 3.56494C33.7243 2.531 32.8832 1.68994 31.8493 1.68994H9.49756C8.46362 1.68994 7.62256 2.531 7.62256 3.56494C7.62256 5.5111 9.56752 5.43994 9.56752 5.43994ZM9.49756 2.93994H31.8492C32.1938 2.93994 32.4742 3.2204 32.4742 3.56494C32.4742 3.90949 32.1938 4.18994 31.8492 4.18994H9.49756C9.15301 4.18994 8.87256 3.90949 8.87256 3.56494C8.87256 3.2204 9.15301 2.93994 9.49756 2.93994Z" fill="white"/>
<path d="M26.4079 10.4861C26.4643 9.9688 26.5949 9.42742 26.7964 8.87688L27.2743 7.56829C27.3426 7.38121 27.3176 7.17278 27.2071 7.00707C27.0966 6.84136 26.9138 6.73821 26.7149 6.72936C23.2316 6.5722 20.6498 7.49344 19.0017 9.43699C17.8318 9.05125 16.4002 8.83988 14.6317 8.91655C14.4328 8.9254 14.25 9.02855 14.1395 9.19426C14.029 9.35998 14.004 9.56841 14.0724 9.75548L14.5506 11.0644C14.752 11.6146 14.8826 12.1557 14.9387 12.673C15.0541 13.7298 15.4899 15.6796 17.1119 16.8646C17.9939 17.5088 19.0907 17.832 20.3877 17.832C20.9882 17.832 21.6319 17.7624 22.3167 17.6235C23.5694 17.3761 24.3099 16.0705 23.9391 14.8652C25.7849 13.7259 26.2795 11.6604 26.4079 10.4861ZM17.8492 15.855C16.6148 14.9532 16.2745 13.3892 16.1814 12.5378C16.1143 11.9201 15.9605 11.2798 15.7246 10.635L15.5479 10.1513C20.9095 10.2224 22.3697 13.35 22.7574 15.3128C21.1616 13.0806 18.7433 11.7953 18.6274 11.7345C18.3228 11.5749 17.9447 11.6924 17.7842 11.9979C17.624 12.3031 17.7418 12.6809 18.047 12.8414C18.0741 12.8557 20.598 14.2026 21.9906 16.4117C20.2233 16.7569 18.8291 16.5706 17.8492 15.855ZM23.5466 13.6177C23.0403 12.366 22.0669 10.9087 20.2123 9.94675C21.4727 8.66074 23.3439 7.99359 25.799 7.9638C25.5022 8.72791 25.2379 9.58463 25.1652 10.3503C25.0697 11.2264 24.7281 12.7172 23.5466 13.6177Z" fill="white"/>
</svg>
